# xmcd CD database file
#
# Track frame offsets:
#	187
#	20842
#	47530
#	63712
#	82907
#	100220
#	115677
#	135947
#
# Disc length: 2135 seconds
#
# Revision: 3
# Processed by: cddbd v1.5.2PL0 Copyright (c) Steve Scherf et al.
# Submitted via: CDex 1.51
#
DISCID=5f085508
DTITLE=EDGE OF SANITY - CRYPTIC
DYEAR=1997
DGENRE=Melodic Death Metal
TTITLE0=Hell Written
TTITLE1=Uncontroll Me
TTITLE2=No Destiny
TTITLE3=Demon I
TTITLE4=Not Of This World
TTITLE5=Dead I Walk
TTITLE6=Born, Breed, Bleeding
TTITLE7=Bleed You Dry
EXTD=YEAR: 1997
EXTT0=
EXTT1=
EXTT2=
EXTT3=
EXTT4=
EXTT5=
EXTT6=
EXTT7=
PLAYORDER=
